<?xml version="1.0" encoding="UTF-8" standalone="no"?>
<svg
   xmlns:dc="http://purl.org/dc/elements/1.1/"
   xmlns:cc="http://creativecommons.org/ns#"
   xmlns:rdf="http://www.w3.org/1999/02/22-rdf-syntax-ns#"
   xmlns:svg="http://www.w3.org/2000/svg"
   xmlns="http://www.w3.org/2000/svg"
   xmlns:sodipodi="http://sodipodi.sourceforge.net/DTD/sodipodi-0.dtd"
   xmlns:inkscape="http://www.inkscape.org/namespaces/inkscape"
   inkscape:version="1.0 (4035a4f, 2020-05-01)"
   sodipodi:docname="Diff-training-Return.svg"
   viewBox="0 0 864 576"
   height="576"
   width="864"
   xml:space="preserve"
   id="svg833"
   version="1.1"><metadata
     id="metadata839"><rdf:RDF><cc:Work
         rdf:about=""><dc:format>image/svg+xml</dc:format><dc:type
           rdf:resource="http://purl.org/dc/dcmitype/StillImage" /><dc:title></dc:title></cc:Work></rdf:RDF></metadata><defs
     id="defs837"><clipPath
       id="clipPath853"
       clipPathUnits="userSpaceOnUse"><path
         id="path851"
         d="M 81,47.52 H 583.2 V 380.16 H 81 Z" /></clipPath><clipPath
       id="clipPath863"
       clipPathUnits="userSpaceOnUse"><path
         id="path861"
         d="M 81,47.52 H 583.2 V 380.16 H 81 Z" /></clipPath><clipPath
       id="clipPath873"
       clipPathUnits="userSpaceOnUse"><path
         id="path871"
         d="M 81,47.52 H 583.2 V 380.16 H 81 Z" /></clipPath><clipPath
       id="clipPath893"
       clipPathUnits="userSpaceOnUse"><path
         id="path891"
         d="M 81,47.52 H 583.2 V 380.16 H 81 Z" /></clipPath><clipPath
       id="clipPath913"
       clipPathUnits="userSpaceOnUse"><path
         id="path911"
         d="M 81,47.52 H 583.2 V 380.16 H 81 Z" /></clipPath><clipPath
       id="clipPath933"
       clipPathUnits="userSpaceOnUse"><path
         id="path931"
         d="M 81,47.52 H 583.2 V 380.16 H 81 Z" /></clipPath><clipPath
       id="clipPath953"
       clipPathUnits="userSpaceOnUse"><path
         id="path951"
         d="M 81,47.52 H 583.2 V 380.16 H 81 Z" /></clipPath><clipPath
       id="clipPath973"
       clipPathUnits="userSpaceOnUse"><path
         id="path971"
         d="M 81,47.52 H 583.2 V 380.16 H 81 Z" /></clipPath><clipPath
       id="clipPath999"
       clipPathUnits="userSpaceOnUse"><path
         id="path997"
         d="M 81,47.52 H 583.2 V 380.16 H 81 Z" /></clipPath><clipPath
       id="clipPath1021"
       clipPathUnits="userSpaceOnUse"><path
         id="path1019"
         d="M -1021,-463 H 1794 V 1233 H -1021 Z" /></clipPath><clipPath
       id="clipPath1031"
       clipPathUnits="userSpaceOnUse"><path
         id="path1029"
         d="M 81,47.52 H 583.2 V 380.16 H 81 Z" /></clipPath><clipPath
       id="clipPath1053"
       clipPathUnits="userSpaceOnUse"><path
         id="path1051"
         d="M -1021,-463 H 1794 V 1233 H -1021 Z" /></clipPath><clipPath
       id="clipPath1063"
       clipPathUnits="userSpaceOnUse"><path
         id="path1061"
         d="M 81,47.52 H 583.2 V 380.16 H 81 Z" /></clipPath><clipPath
       id="clipPath1085"
       clipPathUnits="userSpaceOnUse"><path
         id="path1083"
         d="M -1021,-463 H 1794 V 1233 H -1021 Z" /></clipPath><clipPath
       id="clipPath1095"
       clipPathUnits="userSpaceOnUse"><path
         id="path1093"
         d="M 81,47.52 H 583.2 V 380.16 H 81 Z" /></clipPath><clipPath
       id="clipPath1117"
       clipPathUnits="userSpaceOnUse"><path
         id="path1115"
         d="M -1021,-463 H 1794 V 1233 H -1021 Z" /></clipPath><clipPath
       id="clipPath1127"
       clipPathUnits="userSpaceOnUse"><path
         id="path1125"
         d="M 81,47.52 H 583.2 V 380.16 H 81 Z" /></clipPath><clipPath
       id="clipPath1147"
       clipPathUnits="userSpaceOnUse"><path
         id="path1145"
         d="M 81,47.52 H 583.2 V 380.16 H 81 Z" /></clipPath><clipPath
       id="clipPath1167"
       clipPathUnits="userSpaceOnUse"><path
         id="path1165"
         d="M 81,47.52 H 583.2 V 380.16 H 81 Z" /></clipPath><clipPath
       id="clipPath1193"
       clipPathUnits="userSpaceOnUse"><path
         id="path1191"
         d="M 81,47.52 H 583.2 V 380.16 H 81 Z" /></clipPath><clipPath
       id="clipPath1203"
       clipPathUnits="userSpaceOnUse"><path
         id="path1201"
         d="M 81,47.52 H 583.2 V 380.16 H 81 Z" /></clipPath></defs><sodipodi:namedview
     inkscape:current-layer="g841"
     inkscape:window-maximized="0"
     inkscape:window-y="25"
     inkscape:window-x="0"
     inkscape:cy="288"
     inkscape:cx="432"
     inkscape:zoom="0.77314815"
     showgrid="false"
     id="namedview835"
     inkscape:window-height="480"
     inkscape:window-width="820"
     inkscape:pageshadow="2"
     inkscape:pageopacity="0"
     guidetolerance="10"
     gridtolerance="10"
     objecttolerance="10"
     borderopacity="1"
     bordercolor="#666666"
     pagecolor="#ffffff" /><g
     transform="matrix(1.3333333,0,0,-1.3333333,0,576)"
     inkscape:label="Diff-training-Return"
     inkscape:groupmode="layer"
     id="g841"><path
       id="path843"
       style="fill:#ffffff;fill-opacity:1;fill-rule:nonzero;stroke:none"
       d="M 0,0 H 648 V 432 H 0 Z" /><path
       id="path845"
       style="fill:#ffffff;fill-opacity:1;fill-rule:nonzero;stroke:none"
       d="M 81,47.52 H 583.2 V 380.16 H 81 Z" /><g
       id="g847"><g
         clip-path="url(#clipPath853)"
         id="g849"><path
           id="path855"
           style="fill:#4169e1;fill-opacity:0.1;fill-rule:nonzero;stroke:#4169e1;stroke-width:1;stroke-linecap:butt;stroke-linejoin:round;stroke-miterlimit:10;stroke-dasharray:none;stroke-opacity:0.1"
           d="M 85.0176,205.48949 V 63.554604 l 2.0088,135.299656 2.0088,-17.98907 2.0088,19.6627 2.0088,-17.14014 2.0088,17.414 2.0088,83.90296 2.0088,10.14652 2.0088,-71.27777 2.0088,46.49204 2.0088,-8.60172 2.0088,47.22824 2.0088,-1.43328 2.0088,10.6911 2.0088,4.98152 2.0088,-6.87824 2.0088,9.35814 2.0088,-18.82032 2.0088,8.06017 2.0088,-8.32526 2.0088,-26.5603 2.0088,22.07564 2.0088,-14.75469 2.0088,-2.6587 2.0088,4.55654 2.0088,12.51136 2.0088,10.67104 2.0088,4.06751 2.0088,-3.59446 2.0088,11.11773 2.0088,5.83841 2.0088,-9.97798 2.0088,-9.11559 2.0088,11.65851 2.0088,7.14699 2.0088,0.57243 2.0088,-4.93824 2.0088,0.95855 2.0088,-3.6159 2.0088,1.79115 2.0088,-16.18437 2.0088,26.12643 2.0088,-0.98998 2.0088,2.99654 2.0088,-9.49179 2.0088,6.93151 2.0088,-5.33773 2.0088,-14.24867 2.0088,24.94783 2.0088,-5.61023 2.0088,-8.41925 2.0088,13.80304 2.0088,-2.33789 2.0088,-2.18709 2.0088,1.4566 2.0088,2.36191 2.0088,-1.63399 2.0088,0.32677 2.0088,3.15049 2.0088,2.13713 2.0088,1.42983 2.0088,-3.08215 2.0088,-0.73017 2.0088,7.14976 2.0088,-6.62454 2.0088,4.18198 2.0088,1.86087 2.0088,-4.53695 2.0088,-2.04775 2.0088,1.33397 2.0088,-0.80997 2.0088,0.24422 2.0088,5.37689 2.0088,0.13828 2.0088,-1.56869 2.0088,-6.14673 2.0088,5.59232 2.0088,2.20554 2.0088,2.49252 2.0088,-10.03105 2.0088,4.69999 2.0088,3.9536 2.0088,-0.21585 2.0088,-4.04837 2.0088,-1.04004 2.0088,5.53801 2.0088,0.0181 2.0088,0.76089 2.0088,-2.33783 2.0088,0.64727 2.0088,1.27201 2.0088,-1.06316 2.0088,0.13285 2.0088,-1.38399 2.0088,2.70213 2.0088,-3.94731 2.0088,3.65322 2.0088,-3.48991 2.0088,-0.38004 2.0088,3.61517 2.0088,0.069 2.0088,-2.3434 2.0088,1.04355 2.0088,-1.94531 2.0088,1.96242 2.0088,1.49395 2.0088,-0.86459 2.0088,-1.26682 2.0088,-2.42165 2.0088,5.70715 2.0088,-0.31843 2.0088,-1.8927 2.0088,-3.48985 2.0088,0.18003 2.0088,1.24008 2.0088,1.95383 2.0088,-1.9453 2.0088,4.72287 2.0088,-3.04413 2.0088,0.41423 2.0088,-2.13339 2.0088,0.0264 2.0088,4.056 2.0088,-0.42246 2.0088,-3.58206 2.0088,-0.25809 2.0088,4.26211 2.0088,-1.38668 2.0088,-1.39554 2.0088,3.82647 2.0088,-7.36121 2.0088,-0.72667 2.0088,3.46775 2.0088,2.0248 2.0088,1.22073 2.0088,0.84506 2.0088,-7.23125 2.0088,4.57527 2.0088,0.40515 2.0088,-1.40341 2.0088,0.67249 2.0088,-1.84821 2.0088,-13.99308 2.0088,14.73608 2.0088,4.09217 2.0088,-2.02416 2.0088,-5.38873 2.0088,4.7953 2.0088,-2.61691 2.0088,-0.0435 2.0088,5.01341 2.0088,-4.98484 2.0088,5.3172 2.0088,-0.861 2.0088,0.25221 2.0088,-0.9577 2.0088,-3.71597 2.0088,2.43087 2.0088,-1.07235 2.0088,2.26691 2.0088,-8.14128 2.0088,8.37354 2.0088,0.74309 2.0088,0.21214 2.0088,-3.35279 2.0088,-1.0865 2.0088,4.99907 2.0088,-2.23721 2.0088,-1.33467 2.0088,3.25243 2.0088,-1.35435 2.0088,1.92694 2.0088,-8.10261 2.0088,6.76459 2.0088,-2.40739 2.0088,2.6279 2.0088,-1.61742 2.0088,-0.90762 2.0088,2.59345 2.0088,-0.009 2.0088,-3.32002 2.0088,3.11121 2.0088,-3.38974 2.0088,2.36099 2.0088,-1.8796 2.0088,0.57832 2.0088,0.14527 2.0088,2.93853 2.0088,-3.7948 2.0088,0.78323 2.0088,2.57407 2.0088,-0.68825 2.0088,-0.50489 2.0088,0.78378 2.0088,-0.24317 2.0088,0.75739 2.0088,-5.37224 2.0088,2.8878 2.0088,-0.6301 2.0088,-3.19096 2.0088,6.12881 2.0088,-2.45742 2.0088,1.97194 2.0088,0.3409 2.0088,-1.52809 2.0088,-0.5327 2.0088,-1.8836 2.0088,3.18251 2.0088,-1.65993 2.0088,0.9819 2.0088,0.95869 2.0088,-1.32984 2.0088,-1.80923 2.0088,4.28791 2.0088,-2.16915 2.0088,0.66151 2.0088,0.96872 2.0088,-1.16777 2.0088,1.66677 2.0088,-0.38827 2.0088,-4.13557 2.0088,4.18907 2.0088,-2.44346 2.0088,-0.6737 2.0088,-2.6793 2.0088,4.28233 2.0088,-1.05284 2.0088,-0.37005 2.0088,1.86584 2.0088,-4.15539 2.0088,1.89734 2.0088,2.63834 2.0088,-1.10235 2.0088,-0.51224 2.0088,0.74654 2.0088,-1.68454 2.0088,1.33825 2.0088,1.98047 2.0088,-0.77814 2.0088,-3.60482 2.0088,3.45133 2.0088,-1.68129 2.0088,-0.55219 2.0088,0.36687 2.0088,1.11915 2.0088,2.22362 2.0088,-1.47055 2.0088,0.40656 2.0088,-2.01773 v 3.18405 0 l -2.0088,-0.16458 -2.0088,0.14256 -2.0088,0.5884 -2.0088,-0.19645 -2.0088,-3.57978 -2.0088,1.78617 -2.0088,1.16523 -2.0088,-0.0589 -2.0088,0.89229 -2.0088,-1.32801 -2.0088,0.96087 -2.0088,0.12736 -2.0088,-0.56428 -2.0088,0.51063 -2.0088,-0.48869 -2.0088,0.51963 -2.0088,-0.26626 -2.0088,-2.13129 -2.0088,3.62497 -2.0088,-1.66788 -2.0088,0.41275 -2.0088,0.21747 -2.0088,-0.48636 -2.0088,-0.0132 -2.0088,-0.64141 -2.0088,0.93163 -2.0088,-0.35347 -2.0088,0.52676 -2.0088,-0.47565 -2.0088,-0.0507 -2.0088,-1.0228 -2.0088,0.51839 -2.0088,0.37121 -2.0088,0.26149 -2.0088,0.17708 -2.0088,-0.64491 -2.0088,0.73054 -2.0088,-0.99616 -2.0088,0.0568 -2.0088,0.59348 -2.0088,-0.0689 -2.0088,-0.54263 -2.0088,0.46839 -2.0088,0.77972 -2.0088,-0.36987 -2.0088,0.23754 -2.0088,-0.3622 -2.0088,0.11004 -2.0088,-1.03022 -2.0088,0.92421 -2.0088,-1.42906 -2.0088,1.24991 -2.0088,-0.31231 -2.0088,0.33384 -2.0088,-0.45683 -2.0088,0.7259 -2.0088,-0.37458 -2.0088,-0.15444 -2.0088,-1.08942 -2.0088,1.70139 -2.0088,0.0878 -2.0088,0.0369 -2.0088,-1.44824 -2.0088,0.008 -2.0088,1.34619 -2.0088,-1.59957 -2.0088,1.56009 -2.0088,-1.55978 -2.0088,1.91591 -2.0088,-0.6283 -2.0088,-1.78653 -2.0088,2.06684 -2.0088,-0.62646 -2.0088,0.26266 -2.0088,0.57577 -2.0088,-0.86955 -2.0088,0.64607 -2.0088,0.43223 -2.0088,-0.46526 -2.0088,-2.91429 -2.0088,1.12344 -2.0088,1.87006 -2.0088,-0.80189 -2.0088,-2.2155 -2.0088,2.82706 -2.0088,-0.37875 -2.0088,0.66183 -2.0088,0.5112 -2.0088,-1.00043 -2.0088,-0.21176 -2.0088,0.13867 -2.0088,-0.14041 -2.0088,-0.78525 -2.0088,0.6846 -2.0088,0.46604 -2.0088,0.0686 -2.0088,-0.49986 -2.0088,0.69439 -2.0088,-0.46472 -2.0088,-0.88392 -2.0088,0.87364 -2.0088,-1.40769 -2.0088,1.8415 -2.0088,-0.42527 -2.0088,-0.30969 -2.0088,1.44333 -2.0088,-1.72851 -2.0088,0.58344 -2.0088,-0.32674 -2.0088,0.52714 -2.0088,-0.22082 -2.0088,0.52594 -2.0088,0.0156 -2.0088,-0.43459 -2.0088,-1.05176 -2.0088,-0.17603 -2.0088,0.26093 -2.0088,-0.20402 -2.0088,1.61439 -2.0088,-1.56273 -2.0088,0.92266 -2.0088,-0.36894 -2.0088,-0.42868 -2.0088,1.87418 -2.0088,-0.81483 -2.0088,0.23012 -2.0088,0.41079 -2.0088,-1.22043 -2.0088,0.27046 -2.0088,-0.0889 -2.0088,0.7159 -2.0088,-0.23167 -2.0088,-1.37811 -2.0088,1.11903 -2.0088,-1.51635 -2.0088,-1.6617 -2.0088,2.21764 -2.0088,0.7928 -2.0088,0.40774 -2.0088,-2.67438 -2.0088,2.4432 -2.0088,-0.15303 -2.0088,-0.0377 -2.0088,-0.085 -2.0088,-1.88467 -2.0088,1.11283 -2.0088,1.72646 -2.0088,-0.35883 -2.0088,-0.1172 -2.0088,-0.26163 -2.0088,0.21696 -2.0088,0.25017 -2.0088,-1.18225 -2.0088,1.19997 -2.0088,0.56668 -2.0088,-0.0831 -2.0088,-1.22321 -2.0088,0.0915 -2.0088,-0.19387 -2.0088,-2.20021 -2.0088,1.61277 -2.0088,0.35575 -2.0088,-0.5218 -2.0088,1.70029 -2.0088,-2.62425 -2.0088,2.62986 -2.0088,-0.6956 -2.0088,-0.67893 -2.0088,1.29173 -2.0088,0.065 -2.0088,-1.61956 -2.0088,-1.0162 -2.0088,3.59906 -2.0088,-2.73725 -2.0088,0.20869 -2.0088,-1.39454 -2.0088,-0.86168 -2.0088,-1.21127 -2.0088,3.89073 -2.0088,-2.18193 -2.0088,-1.41973 -2.0088,3.02728 -2.0088,-0.73506 -2.0088,-4.05549 -2.0088,4.64587 -2.0088,-0.26219 -2.0088,-1.93952 -2.0088,2.41204 -2.0088,-2.80683 -2.0088,0.66813 -2.0088,-0.9011 -2.0088,0.18016 -2.0088,-1.75328 -2.0088,-1.56399 -2.0088,2.09513 -2.0088,3.1805 -2.0088,-4.42164 -2.0088,-3.29009 -2.0088,-0.40666 -2.0088,7.48729 -2.0088,-8.19305 -2.0088,7.17188 -2.0088,-6.69816 -2.0088,-1.08977 -2.0088,2.17667 -2.0088,2.7841 -2.0088,-4.87725 -2.0088,-0.84233 -2.0088,7.1685 -2.0088,-14.19476 -2.0088,9.60342 -2.0088,-3.97213 -2.0088,2.56142 -2.0088,0.10823 -2.0088,1.23431 -2.0088,-7.22468 -2.0088,3.22416 -2.0088,9.92234 -2.0088,-14.79556 -2.0088,11.47076 -2.0088,-16.55108 -2.0088,8.12986 -2.0088,-9.53149 -2.0088,-4.12606 -2.0088,-5.21401 -2.0088,18.22996 -2.0088,-8.011 -2.0088,-2.79823 -2.0088,19.05084 -2.0088,6.29965 -2.0088,-0.9966 -2.0088,-1.18274 -2.0088,-12.49247 -2.0088,-3.8046 -2.0088,12.96243 -2.0088,4.10471 -2.0088,-10.83146 -2.0088,20.65968 -2.0088,-23.09137 -2.0088,-20.16228 -2.0088,33.50475 -2.0088,-22.9192 -2.0088,-30.55162 -2.0088,-48.49696 -2.0088,-28.49051 -2.0088,-32.94621 -2.0088,24.27587 -2.0088,-1.66155 z" /></g></g><g
       id="g857"><g
         clip-path="url(#clipPath863)"
         id="g859"><path
           id="path865"
           style="fill:#ff0000;fill-opacity:0.1;fill-rule:nonzero;stroke:#ff0000;stroke-width:1;stroke-linecap:butt;stroke-linejoin:round;stroke-miterlimit:10;stroke-dasharray:none;stroke-opacity:0.1"
           d="M 85.0176,221.74352 V 62.64 l 2.0088,145.16473 2.0088,-12.6895 2.0088,3.66494 2.0088,-25.76664 2.0088,-5.52609 2.0088,20.9443 2.0088,50.82839 2.0088,-48.47334 2.0088,38.26145 2.0088,17.92719 2.0088,2.86844 2.0088,-3.59394 2.0088,5.80681 2.0088,-5.31672 2.0088,-6.11293 2.0088,14.00048 2.0088,-12.01621 2.0088,5.55427 2.0088,-5.39362 2.0088,9.70867 2.0088,-4.47403 2.0088,-13.30088 2.0088,18.84917 2.0088,-16.96648 2.0088,15.85321 2.0088,0.0405 2.0088,-0.1576 2.0088,7.45966 2.0088,-9.22371 2.0088,7.21842 2.0088,-2.16102 2.0088,8.7337 2.0088,-11.8588 2.0088,-3.2105 2.0088,1.98929 2.0088,-7.20455 2.0088,7.28817 2.0088,9.59626 2.0088,1.70059 2.0088,-2.16037 2.0088,3.92326 2.0088,-5.2724 2.0088,5.067 2.0088,-3.29193 2.0088,-0.18776 2.0088,-1.77678 2.0088,3.13539 2.0088,-1.38317 2.0088,-1.04774 2.0088,6.18 2.0088,-2.08623 2.0088,-0.9055 2.0088,-0.90789 2.0088,1.80106 2.0088,2.8057 2.0088,-3.36803 2.0088,-1.81666 2.0088,4.95397 2.0088,-2.88125 2.0088,-1.09466 2.0088,-1.04645 2.0088,1.28571 2.0088,-0.0492 2.0088,-2.71944 2.0088,2.32336 2.0088,-1.00071 2.0088,2.28634 2.0088,1.8662 2.0088,-1.04458 2.0088,-2.21028 2.0088,-0.59911 2.0088,-1.51727 2.0088,2.44188 2.0088,-1.4018 2.0088,-1.57948 2.0088,2.7598 2.0088,0.82926 2.0088,-5.30416 2.0088,1.56392 2.0088,2.74139 2.0088,1.20563 2.0088,-3.18671 2.0088,2.08466 2.0088,-2.46391 2.0088,3.01429 2.0088,-1.69217 2.0088,1.01763 2.0088,1.58887 2.0088,-1.16907 2.0088,-5.86654 2.0088,6.95838 2.0088,-2.30693 2.0088,2.03713 2.0088,-2.24425 2.0088,-1.30839 2.0088,-0.68616 2.0088,8.8078 2.0088,-4.11631 2.0088,-1.20259 2.0088,-0.20101 2.0088,-1.27812 2.0088,0.49464 2.0088,3.17344 2.0088,-3.26434 2.0088,-0.72324 2.0088,1.17447 2.0088,1.10808 2.0088,0.1722 2.0088,-3.08217 2.0088,3.51176 2.0088,0.61168 2.0088,0.6557 2.0088,1.12221 2.0088,-3.57454 2.0088,-3.26972 2.0088,6.65257 2.0088,-2.63348 2.0088,-1.45766 2.0088,0.004 2.0088,3.95227 2.0088,-4.86638 2.0088,1.2915 2.0088,-2.74819 2.0088,6.30554 2.0088,-4.64388 2.0088,1.63265 2.0088,-3.47216 2.0088,0.043 2.0088,5.88144 2.0088,-0.93119 2.0088,-1.60011 2.0088,1.94431 2.0088,-0.0238 2.0088,-2.90716 2.0088,4.63574 2.0088,-6.17969 2.0088,2.65656 2.0088,4.22544 2.0088,-4.60086 2.0088,0.31176 2.0088,2.22722 2.0088,-0.19956 2.0088,-6.57079 2.0088,9.44432 2.0088,-4.68862 2.0088,2.26607 2.0088,-1.41234 2.0088,1.15107 2.0088,0.62148 2.0088,-0.72046 2.0088,-0.75126 2.0088,-1.46783 2.0088,2.18665 2.0088,-4.65379 2.0088,2.23264 2.0088,1.58758 2.0088,-0.59037 2.0088,3.48708 2.0088,-5.11828 2.0088,2.85476 2.0088,1.53039 2.0088,-7.66332 2.0088,6.01829 2.0088,2.89056 2.0088,-0.56965 2.0088,-7.94649 2.0088,2.47871 2.0088,3.71049 2.0088,-3.08692 2.0088,3.22692 2.0088,-2.63555 2.0088,2.23812 2.0088,-2.38338 2.0088,2.7789 2.0088,-2.85646 2.0088,1.4983 2.0088,0.0226 2.0088,-1.37324 2.0088,1.59018 2.0088,-2.36052 2.0088,2.41804 2.0088,0.31865 2.0088,-0.65057 2.0088,1.02833 2.0088,-2.01905 2.0088,0.0202 2.0088,1.99446 2.0088,-5.1011 2.0088,5.9179 2.0088,-2.51379 2.0088,-2.96357 2.0088,3.86918 2.0088,0.84077 2.0088,-3.40436 2.0088,0.48369 2.0088,2.56773 2.0088,0.0527 2.0088,1.20679 2.0088,-1.05458 2.0088,-2.21016 2.0088,2.43572 2.0088,-2.75141 2.0088,3.91702 2.0088,-0.99318 2.0088,1.00147 2.0088,-3.64823 2.0088,2.15022 2.0088,-4.32436 2.0088,6.55572 2.0088,-2.99582 2.0088,-2.05752 2.0088,1.45922 2.0088,0.57738 2.0088,1.28975 2.0088,-7.00388 2.0088,5.87007 2.0088,-2.63439 2.0088,4.46263 2.0088,-1.97517 2.0088,0.0129 2.0088,-1.66093 2.0088,-0.37456 2.0088,3.25836 2.0088,-2.03801 2.0088,-1.76779 2.0088,-0.16802 2.0088,0.23033 2.0088,4.08719 2.0088,-2.98294 2.0088,3.48219 2.0088,-0.77378 2.0088,-3.81466 2.0088,2.69954 2.0088,0.46664 2.0088,-1.13843 2.0088,0.37665 2.0088,-1.00136 2.0088,1.09839 2.0088,0.36087 2.0088,-2.74508 2.0088,2.04486 2.0088,-0.73627 2.0088,1.39121 2.0088,-2.35909 2.0088,2.52002 2.0088,-1.35002 2.0088,-0.015 2.0088,2.66759 v 96.76033 0 l -2.0088,1.02365 -2.0088,-1.8755 -2.0088,1.67394 -2.0088,0.007 -2.0088,-0.22126 -2.0088,-2.87073 -2.0088,0.13809 -2.0088,0.83756 -2.0088,1.64245 -2.0088,-5.98194 -2.0088,7.94053 -2.0088,-0.61234 -2.0088,-1.67845 -2.0088,-1.13209 -2.0088,-1.00933 -2.0088,-1.5053 -2.0088,1.01521 -2.0088,1.0343 -2.0088,3.08815 -2.0088,-2.59613 -2.0088,0.94615 -2.0088,-0.66886 -2.0088,-2.94449 -2.0088,2.57318 -2.0088,1.34183 -2.0088,1.96521 -2.0088,-2.61251 -2.0088,-1.9123 -2.0088,-1.44665 -2.0088,5.38983 -2.0088,-5.45385 -2.0088,4.15835 -2.0088,-0.47574 -2.0088,-0.0245 -2.0088,0.65416 -2.0088,-0.72505 -2.0088,1.91685 -2.0088,-7.65868 -2.0088,6.09553 -2.0088,1.50083 -2.0088,-1.07543 -2.0088,0.31306 -2.0088,-1.39615 -2.0088,-0.80766 -2.0088,2.68254 -2.0088,-3.69315 -2.0088,-0.77518 -2.0088,-0.54359 -2.0088,5.82946 -2.0088,-1.78283 -2.0088,-1.49078 -2.0088,2.75479 -2.0088,-4.63952 -2.0088,3.53475 -2.0088,1.32709 -2.0088,-1.69642 -2.0088,0.76356 -2.0088,-3.42109 -2.0088,2.39303 -2.0088,-3.59268 -2.0088,-0.5188 -2.0088,3.7763 -2.0088,2.97358 -2.0088,-1.66845 -2.0088,-1.68591 -2.0088,2.96295 -2.0088,-0.68007 -2.0088,-1.90984 -2.0088,-1.93262 -2.0088,0.67531 -2.0088,-0.97084 -2.0088,2.51754 -2.0088,-0.0443 -2.0088,-0.25605 -2.0088,-1.06513 -2.0088,0.97466 -2.0088,-1.60454 -2.0088,1.32154 -2.0088,3.13813 -2.0088,-1.32744 -2.0088,1.39103 -2.0088,-0.69657 -2.0088,0.16616 -2.0088,-1.54181 -2.0088,-3.12611 -2.0088,3.43023 -2.0088,0.10801 -2.0088,-5.16949 -2.0088,5.07711 -2.0088,-1.08144 -2.0088,2.56253 -2.0088,-0.38768 -2.0088,-0.48149 -2.0088,-0.28248 -2.0088,-2.96537 -2.0088,3.06191 -2.0088,-1.59887 -2.0088,1.021 -2.0088,-1.37881 -2.0088,-0.048 -2.0088,-0.4149 -2.0088,-4.0694 -2.0088,3.99018 -2.0088,1.19756 -2.0088,-0.45769 -2.0088,-0.33256 -2.0088,3.09386 -2.0088,-1.25952 -2.0088,-0.66425 -2.0088,-1.31793 -2.0088,2.63057 -2.0088,1.48819 -2.0088,-3.90626 -2.0088,3.033 -2.0088,-0.50145 -2.0088,-3.88065 -2.0088,3.76298 -2.0088,-1.37441 -2.0088,-2.7832 -2.0088,2.88706 -2.0088,-2.95253 -2.0088,1.76211 -2.0088,-0.22436 -2.0088,-2.40581 -2.0088,5.877 -2.0088,-4.32857 -2.0088,0.20701 -2.0088,3.30294 -2.0088,0.12224 -2.0088,-0.64166 -2.0088,-1.82366 -2.0088,0.59808 -2.0088,1.40927 -2.0088,-2.17315 -2.0088,1.12911 -2.0088,-1.16611 -2.0088,-0.66807 -2.0088,3.39036 -2.0088,-1.78122 -2.0088,-9.25118 -2.0088,8.57894 -2.0088,-0.79288 -2.0088,-0.90091 -2.0088,1.33016 -2.0088,-0.0905 -2.0088,0.68154 -2.0088,0.37607 -2.0088,-0.38816 -2.0088,2.16033 -2.0088,-7.38004 -2.0088,6.46561 -2.0088,-8.73158 -2.0088,10.48731 -2.0088,-2.13837 -2.0088,0.6537 -2.0088,-1.99578 -2.0088,2.10004 -2.0088,0.50009 -2.0088,-2.45365 -2.0088,-0.0111 -2.0088,-6.1428 -2.0088,8.57177 -2.0088,-8.97325 -2.0088,4.88415 -2.0088,2.73313 -2.0088,-3.19321 -2.0088,4.70545 -2.0088,0.55229 -2.0088,-5.62225 -2.0088,3.80206 -2.0088,-1.65391 -2.0088,1.95754 -2.0088,-4.85597 -2.0088,4.36266 -2.0088,-0.0258 -2.0088,-1.34769 -2.0088,-2.34163 -2.0088,-1.1325 -2.0088,4.14059 -2.0088,0.23557 -2.0088,-2.69623 -2.0088,-0.0482 -2.0088,-1.04525 -2.0088,4.18855 -2.0088,-1.16725 -2.0088,-0.25365 -2.0088,0.26281 -2.0088,-7.20827 -2.0088,6.74018 -2.0088,-3.52951 -2.0088,4.08847 -2.0088,-3.26952 -2.0088,2.57423 -2.0088,-6.31383 -2.0088,-0.33168 -2.0088,1.15378 -2.0088,0.11666 -2.0088,0.87764 -2.0088,-1.47302 -2.0088,-11.00786 -2.0088,15.5166 -2.0088,-1.13702 -2.0088,0.93016 -2.0088,-0.15301 -2.0088,-3.4049 -2.0088,-12.30247 -2.0088,13.86211 -2.0088,-7.82466 -2.0088,-0.41994 -2.0088,1.69871 -2.0088,6.73508 -2.0088,0.59161 -2.0088,-1.91404 -2.0088,-14.23473 -2.0088,4.62521 -2.0088,6.61812 -2.0088,0.86959 -2.0088,-1.45266 -2.0088,-17.35911 -2.0088,-4.22657 -2.0088,12.74992 -2.0088,-7.41467 -2.0088,-13.34547 -2.0088,-6.14534 -2.0088,12.23427 -2.0088,-9.48402 -2.0088,6.65768 -2.0088,8.45537 -2.0088,-16.5518 -2.0088,14.27705 -2.0088,-23.01512 -2.0088,30.8609 -2.0088,-2.93933 -2.0088,-10.75959 -2.0088,3.04904 -2.0088,7.46579 -2.0088,-7.60346 -2.0088,-8.38761 -2.0088,0.42226 -2.0088,-29.46059 -2.0088,44.8619 -2.0088,-16.14317 -2.0088,-4.10625 -2.0088,-0.43635 -2.0088,-33.08904 -2.0088,10.79826 -2.0088,-72.22768 -2.0088,0.57851 z" /></g></g><g
       id="g867"><g
         clip-path="url(#clipPath873)"
         id="g869"><path
           id="path875"
           style="fill:none;stroke:#b0b0b0;stroke-width:0.8;stroke-linecap:square;stroke-linejoin:round;stroke-miterlimit:10;stroke-dasharray:none;stroke-opacity:1"
           d="M 81,47.52 V 380.16" /></g></g><g
       id="g877"><path
         id="path879"
         style="fill:#000000;fill-opacity:1;fill-rule:nonzero;stroke:#000000;stroke-width:0.8;stroke-linecap:butt;stroke-linejoin:round;stroke-miterlimit:10;stroke-dasharray:none;stroke-opacity:1"
         d="m 81,47.52 v -3.5" /><g
         transform="translate(75.90625,28.36375)"
         id="g881"><text
           id="text885"
           style="font-variant:normal;font-weight:normal;font-size:16px;font-family:DejaVuSans;-inkscape-font-specification:DejaVuSans;writing-mode:lr-tb;fill:#000000;fill-opacity:1;fill-rule:nonzero;stroke:none"
           transform="scale(1,-1)"><tspan
             id="tspan883"
             y="0"
             x="0">0</tspan></text></g></g><g
       id="g887"><g
         clip-path="url(#clipPath893)"
         id="g889"><path
           id="path895"
           style="fill:none;stroke:#b0b0b0;stroke-width:0.8;stroke-linecap:square;stroke-linejoin:round;stroke-miterlimit:10;stroke-dasharray:none;stroke-opacity:1"
           d="M 181.44,47.52 V 380.16" /></g></g><g
       id="g897"><path
         id="path899"
         style="fill:#000000;fill-opacity:1;fill-rule:nonzero;stroke:#000000;stroke-width:0.8;stroke-linecap:butt;stroke-linejoin:round;stroke-miterlimit:10;stroke-dasharray:none;stroke-opacity:1"
         d="m 181.44,47.52 v -3.5" /><g
         transform="translate(166.15875,28.36375)"
         id="g901"><text
           id="text905"
           style="font-variant:normal;font-weight:normal;font-size:16px;font-family:DejaVuSans;-inkscape-font-specification:DejaVuSans;writing-mode:lr-tb;fill:#000000;fill-opacity:1;fill-rule:nonzero;stroke:none"
           transform="scale(1,-1)"><tspan
             id="tspan903"
             sodipodi:role="line"
             y="0"
             x="0 10.176 20.351999">500</tspan></text></g></g><g
       id="g907"><g
         clip-path="url(#clipPath913)"
         id="g909"><path
           id="path915"
           style="fill:none;stroke:#b0b0b0;stroke-width:0.8;stroke-linecap:square;stroke-linejoin:round;stroke-miterlimit:10;stroke-dasharray:none;stroke-opacity:1"
           d="M 281.88,47.52 V 380.16" /></g></g><g
       id="g917"><path
         id="path919"
         style="fill:#000000;fill-opacity:1;fill-rule:nonzero;stroke:#000000;stroke-width:0.8;stroke-linecap:butt;stroke-linejoin:round;stroke-miterlimit:10;stroke-dasharray:none;stroke-opacity:1"
         d="m 281.88,47.52 v -3.5" /><g
         transform="translate(261.505,28.36375)"
         id="g921"><text
           id="text925"
           style="font-variant:normal;font-weight:normal;font-size:16px;font-family:DejaVuSans;-inkscape-font-specification:DejaVuSans;writing-mode:lr-tb;fill:#000000;fill-opacity:1;fill-rule:nonzero;stroke:none"
           transform="scale(1,-1)"><tspan
             id="tspan923"
             sodipodi:role="line"
             y="0"
             x="0 10.176 20.351999 30.528">1000</tspan></text></g></g><g
       id="g927"><g
         clip-path="url(#clipPath933)"
         id="g929"><path
           id="path935"
           style="fill:none;stroke:#b0b0b0;stroke-width:0.8;stroke-linecap:square;stroke-linejoin:round;stroke-miterlimit:10;stroke-dasharray:none;stroke-opacity:1"
           d="M 382.32,47.52 V 380.16" /></g></g><g
       id="g937"><path
         id="path939"
         style="fill:#000000;fill-opacity:1;fill-rule:nonzero;stroke:#000000;stroke-width:0.8;stroke-linecap:butt;stroke-linejoin:round;stroke-miterlimit:10;stroke-dasharray:none;stroke-opacity:1"
         d="m 382.32,47.52 v -3.5" /><g
         transform="translate(361.945,28.36375)"
         id="g941"><text
           id="text945"
           style="font-variant:normal;font-weight:normal;font-size:16px;font-family:DejaVuSans;-inkscape-font-specification:DejaVuSans;writing-mode:lr-tb;fill:#000000;fill-opacity:1;fill-rule:nonzero;stroke:none"
           transform="scale(1,-1)"><tspan
             id="tspan943"
             sodipodi:role="line"
             y="0"
             x="0 10.176 20.351999 30.528">1500</tspan></text></g></g><g
       id="g947"><g
         clip-path="url(#clipPath953)"
         id="g949"><path
           id="path955"
           style="fill:none;stroke:#b0b0b0;stroke-width:0.8;stroke-linecap:square;stroke-linejoin:round;stroke-miterlimit:10;stroke-dasharray:none;stroke-opacity:1"
           d="M 482.76,47.52 V 380.16" /></g></g><g
       id="g957"><path
         id="path959"
         style="fill:#000000;fill-opacity:1;fill-rule:nonzero;stroke:#000000;stroke-width:0.8;stroke-linecap:butt;stroke-linejoin:round;stroke-miterlimit:10;stroke-dasharray:none;stroke-opacity:1"
         d="m 482.76,47.52 v -3.5" /><g
         transform="translate(462.385,28.36375)"
         id="g961"><text
           id="text965"
           style="font-variant:normal;font-weight:normal;font-size:16px;font-family:DejaVuSans;-inkscape-font-specification:DejaVuSans;writing-mode:lr-tb;fill:#000000;fill-opacity:1;fill-rule:nonzero;stroke:none"
           transform="scale(1,-1)"><tspan
             id="tspan963"
             sodipodi:role="line"
             y="0"
             x="0 10.176 20.351999 30.528">2000</tspan></text></g></g><g
       id="g967"><g
         clip-path="url(#clipPath973)"
         id="g969"><path
           id="path975"
           style="fill:none;stroke:#b0b0b0;stroke-width:0.8;stroke-linecap:square;stroke-linejoin:round;stroke-miterlimit:10;stroke-dasharray:none;stroke-opacity:1"
           d="M 583.2,47.52 V 380.16" /></g></g><g
       id="g977"><path
         id="path979"
         style="fill:#000000;fill-opacity:1;fill-rule:nonzero;stroke:#000000;stroke-width:0.8;stroke-linecap:butt;stroke-linejoin:round;stroke-miterlimit:10;stroke-dasharray:none;stroke-opacity:1"
         d="m 583.2,47.52 v -3.5" /><g
         transform="translate(562.825,28.36375)"
         id="g981"><text
           id="text985"
           style="font-variant:normal;font-weight:normal;font-size:16px;font-family:DejaVuSans;-inkscape-font-specification:DejaVuSans;writing-mode:lr-tb;fill:#000000;fill-opacity:1;fill-rule:nonzero;stroke:none"
           transform="scale(1,-1)"><tspan
             id="tspan983"
             sodipodi:role="line"
             y="0"
             x="0 10.176 20.351999 30.528">2500</tspan></text></g><g
         transform="translate(262.63906,5.8325)"
         id="g987"><text
           id="text991"
           style="font-variant:normal;font-weight:normal;font-size:20px;font-family:DejaVuSans;-inkscape-font-specification:DejaVuSans;writing-mode:lr-tb;fill:#000000;fill-opacity:1;fill-rule:nonzero;stroke:none"
           transform="scale(1,-1)"><tspan
             id="tspan989"
             sodipodi:role="line"
             y="0"
             x="0 9.2825003 17.502501 29.762501 35.322498 48.002499 53.5625 66.2425 78.942497 85.302498 95.722504 103.5625 115.8625 128.5625">Training steps</tspan></text></g></g><g
       id="g993"><g
         clip-path="url(#clipPath999)"
         id="g995"><path
           id="path1001"
           style="fill:none;stroke:#b0b0b0;stroke-width:0.8;stroke-linecap:square;stroke-linejoin:round;stroke-miterlimit:10;stroke-dasharray:none;stroke-opacity:1"
           d="M 81,59.700263 H 583.2" /></g></g><g
       id="g1003"><path
         id="path1005"
         style="fill:#000000;fill-opacity:1;fill-rule:nonzero;stroke:#000000;stroke-width:0.8;stroke-linecap:butt;stroke-linejoin:round;stroke-miterlimit:10;stroke-dasharray:none;stroke-opacity:1"
         d="M 81,59.700263 H 77.5" /><g
         transform="translate(40.21875,53.622138)"
         id="g1007"><text
           id="text1011"
           style="font-variant:normal;font-weight:normal;font-size:16px;font-family:DejaVuSans;-inkscape-font-specification:DejaVuSans;writing-mode:lr-tb;fill:#000000;fill-opacity:1;fill-rule:nonzero;stroke:none"
           transform="matrix(1,0,0,-1,13.40625,0)"><tspan
             id="tspan1009"
             sodipodi:role="line"
             y="0"
             x="0 10.176">20</tspan></text><g
           transform="scale(0.016)"
           id="g1013"><g
             id="g1015"><g
               clip-path="url(#clipPath1021)"
               id="g1017"><path
                 id="path1023"
                 style="fill:#000000;fill-opacity:1;fill-rule:nonzero;stroke:none"
                 d="M 106,355 H 732 V 272 H 106 Z" /></g></g></g></g></g><g
       id="g1025"><g
         clip-path="url(#clipPath1031)"
         id="g1027"><path
           id="path1033"
           style="fill:none;stroke:#b0b0b0;stroke-width:0.8;stroke-linecap:square;stroke-linejoin:round;stroke-miterlimit:10;stroke-dasharray:none;stroke-opacity:1"
           d="M 81,108.06295 H 583.2" /></g></g><g
       id="g1035"><path
         id="path1037"
         style="fill:#000000;fill-opacity:1;fill-rule:nonzero;stroke:#000000;stroke-width:0.8;stroke-linecap:butt;stroke-linejoin:round;stroke-miterlimit:10;stroke-dasharray:none;stroke-opacity:1"
         d="M 81,108.06295 H 77.5" /><g
         transform="translate(40.21875,101.98483)"
         id="g1039"><text
           id="text1043"
           style="font-variant:normal;font-weight:normal;font-size:16px;font-family:DejaVuSans;-inkscape-font-specification:DejaVuSans;writing-mode:lr-tb;fill:#000000;fill-opacity:1;fill-rule:nonzero;stroke:none"
           transform="matrix(1,0,0,-1,13.40625,0)"><tspan
             id="tspan1041"
             sodipodi:role="line"
             y="0"
             x="0 10.176">15</tspan></text><g
           transform="scale(0.016)"
           id="g1045"><g
             id="g1047"><g
               clip-path="url(#clipPath1053)"
               id="g1049"><path
                 id="path1055"
                 style="fill:#000000;fill-opacity:1;fill-rule:nonzero;stroke:none"
                 d="M 106,355 H 732 V 272 H 106 Z" /></g></g></g></g></g><g
       id="g1057"><g
         clip-path="url(#clipPath1063)"
         id="g1059"><path
           id="path1065"
           style="fill:none;stroke:#b0b0b0;stroke-width:0.8;stroke-linecap:square;stroke-linejoin:round;stroke-miterlimit:10;stroke-dasharray:none;stroke-opacity:1"
           d="M 81,156.42564 H 583.2" /></g></g><g
       id="g1067"><path
         id="path1069"
         style="fill:#000000;fill-opacity:1;fill-rule:nonzero;stroke:#000000;stroke-width:0.8;stroke-linecap:butt;stroke-linejoin:round;stroke-miterlimit:10;stroke-dasharray:none;stroke-opacity:1"
         d="M 81,156.42564 H 77.5" /><g
         transform="translate(40.21875,150.34752)"
         id="g1071"><text
           id="text1075"
           style="font-variant:normal;font-weight:normal;font-size:16px;font-family:DejaVuSans;-inkscape-font-specification:DejaVuSans;writing-mode:lr-tb;fill:#000000;fill-opacity:1;fill-rule:nonzero;stroke:none"
           transform="matrix(1,0,0,-1,13.40625,0)"><tspan
             id="tspan1073"
             sodipodi:role="line"
             y="0"
             x="0 10.176">10</tspan></text><g
           transform="scale(0.016)"
           id="g1077"><g
             id="g1079"><g
               clip-path="url(#clipPath1085)"
               id="g1081"><path
                 id="path1087"
                 style="fill:#000000;fill-opacity:1;fill-rule:nonzero;stroke:none"
                 d="M 106,355 H 732 V 272 H 106 Z" /></g></g></g></g></g><g
       id="g1089"><g
         clip-path="url(#clipPath1095)"
         id="g1091"><path
           id="path1097"
           style="fill:none;stroke:#b0b0b0;stroke-width:0.8;stroke-linecap:square;stroke-linejoin:round;stroke-miterlimit:10;stroke-dasharray:none;stroke-opacity:1"
           d="M 81,204.78833 H 583.2" /></g></g><g
       id="g1099"><path
         id="path1101"
         style="fill:#000000;fill-opacity:1;fill-rule:nonzero;stroke:#000000;stroke-width:0.8;stroke-linecap:butt;stroke-linejoin:round;stroke-miterlimit:10;stroke-dasharray:none;stroke-opacity:1"
         d="M 81,204.78833 H 77.5" /><g
         transform="translate(50.40625,198.7102)"
         id="g1103"><text
           id="text1107"
           style="font-variant:normal;font-weight:normal;font-size:16px;font-family:DejaVuSans;-inkscape-font-specification:DejaVuSans;writing-mode:lr-tb;fill:#000000;fill-opacity:1;fill-rule:nonzero;stroke:none"
           transform="matrix(1,0,0,-1,13.40625,0)"><tspan
             id="tspan1105"
             y="0"
             x="0">5</tspan></text><g
           transform="scale(0.016)"
           id="g1109"><g
             id="g1111"><g
               clip-path="url(#clipPath1117)"
               id="g1113"><path
                 id="path1119"
                 style="fill:#000000;fill-opacity:1;fill-rule:nonzero;stroke:none"
                 d="M 106,355 H 732 V 272 H 106 Z" /></g></g></g></g></g><g
       id="g1121"><g
         clip-path="url(#clipPath1127)"
         id="g1123"><path
           id="path1129"
           style="fill:none;stroke:#b0b0b0;stroke-width:0.8;stroke-linecap:square;stroke-linejoin:round;stroke-miterlimit:10;stroke-dasharray:none;stroke-opacity:1"
           d="M 81,253.15102 H 583.2" /></g></g><g
       id="g1131"><path
         id="path1133"
         style="fill:#000000;fill-opacity:1;fill-rule:nonzero;stroke:#000000;stroke-width:0.8;stroke-linecap:butt;stroke-linejoin:round;stroke-miterlimit:10;stroke-dasharray:none;stroke-opacity:1"
         d="M 81,253.15102 H 77.5" /><g
         transform="translate(63.8125,247.07289)"
         id="g1135"><text
           id="text1139"
           style="font-variant:normal;font-weight:normal;font-size:16px;font-family:DejaVuSans;-inkscape-font-specification:DejaVuSans;writing-mode:lr-tb;fill:#000000;fill-opacity:1;fill-rule:nonzero;stroke:none"
           transform="scale(1,-1)"><tspan
             id="tspan1137"
             y="0"
             x="0">0</tspan></text></g></g><g
       id="g1141"><g
         clip-path="url(#clipPath1147)"
         id="g1143"><path
           id="path1149"
           style="fill:none;stroke:#b0b0b0;stroke-width:0.8;stroke-linecap:square;stroke-linejoin:round;stroke-miterlimit:10;stroke-dasharray:none;stroke-opacity:1"
           d="M 81,301.51371 H 583.2" /></g></g><g
       id="g1151"><path
         id="path1153"
         style="fill:#000000;fill-opacity:1;fill-rule:nonzero;stroke:#000000;stroke-width:0.8;stroke-linecap:butt;stroke-linejoin:round;stroke-miterlimit:10;stroke-dasharray:none;stroke-opacity:1"
         d="M 81,301.51371 H 77.5" /><g
         transform="translate(63.8125,295.43558)"
         id="g1155"><text
           id="text1159"
           style="font-variant:normal;font-weight:normal;font-size:16px;font-family:DejaVuSans;-inkscape-font-specification:DejaVuSans;writing-mode:lr-tb;fill:#000000;fill-opacity:1;fill-rule:nonzero;stroke:none"
           transform="scale(1,-1)"><tspan
             id="tspan1157"
             y="0"
             x="0">5</tspan></text></g></g><g
       id="g1161"><g
         clip-path="url(#clipPath1167)"
         id="g1163"><path
           id="path1169"
           style="fill:none;stroke:#b0b0b0;stroke-width:0.8;stroke-linecap:square;stroke-linejoin:round;stroke-miterlimit:10;stroke-dasharray:none;stroke-opacity:1"
           d="M 81,349.87639 H 583.2" /></g></g><g
       id="g1171"><path
         id="path1173"
         style="fill:#000000;fill-opacity:1;fill-rule:nonzero;stroke:#000000;stroke-width:0.8;stroke-linecap:butt;stroke-linejoin:round;stroke-miterlimit:10;stroke-dasharray:none;stroke-opacity:1"
         d="M 81,349.87639 H 77.5" /><g
         transform="translate(53.625,343.79827)"
         id="g1175"><text
           id="text1179"
           style="font-variant:normal;font-weight:normal;font-size:16px;font-family:DejaVuSans;-inkscape-font-specification:DejaVuSans;writing-mode:lr-tb;fill:#000000;fill-opacity:1;fill-rule:nonzero;stroke:none"
           transform="scale(1,-1)"><tspan
             id="tspan1177"
             sodipodi:role="line"
             y="0"
             x="0 10.176">10</tspan></text></g><g
         transform="rotate(90,-58.994219,91.056719)"
         id="g1181"><text
           id="text1185"
           style="font-variant:normal;font-weight:normal;font-size:20px;font-family:DejaVuSans;-inkscape-font-specification:DejaVuSans;writing-mode:lr-tb;fill:#000000;fill-opacity:1;fill-rule:nonzero;stroke:none"
           transform="scale(1,-1)"><tspan
             id="tspan1183"
             sodipodi:role="line"
             y="0"
             x="0 8.8293753 21.069374 28.909374 41.169376 46.729374 53.089375 66.098747 78.39875 94.758751 107.01875 114.895">Total Reward</tspan></text></g></g><g
       id="g1187"><g
         clip-path="url(#clipPath1193)"
         id="g1189"><path
           id="path1195"
           style="fill:none;stroke:#4169e1;stroke-width:3;stroke-linecap:square;stroke-linejoin:round;stroke-miterlimit:10;stroke-dasharray:none;stroke-opacity:1"
           d="m 85.0176,134.52205 2.0088,6.84806 2.0088,4.05 4.0176,12.49088 2.0088,8.88943 4.0176,27.7274 2.0088,7.36464 6.0264,29.69895 2.0088,9.51381 2.0088,8.89176 2.0088,7.60353 2.0088,6.68949 2.0088,7.11308 4.0176,10.94063 2.0088,4.14742 2.0088,1.45212 2.0088,2.5506 2.0088,1.95836 2.0088,0.71809 2.0088,1.13481 2.0088,1.8532 2.0088,2.678 2.0088,2.20709 2.0088,2.63421 2.0088,2.35313 2.0088,3.14952 2.0088,1.83956 2.0088,1.03861 6.0264,5.67675 4.0176,2.63122 2.0088,0.57754 2.0088,1.31908 2.0088,0.0195 6.0264,4.08182 2.0088,0.57939 4.0176,1.82081 2.0088,-0.26256 2.0088,1.42073 2.0088,0.62379 2.0088,0.16077 4.0176,2.00297 8.0352,2.47571 2.0088,0.56496 4.0176,1.42443 2.0088,0.85388 4.0176,0.99866 2.0088,0.82499 2.0088,0.17896 4.0176,1.21839 8.0352,0.71092 2.0088,0.11373 6.0264,1.17947 4.0176,0.31557 2.0088,0.34283 2.0088,0.51415 2.0088,-0.0421 2.0088,0.13256 4.0176,0.69074 4.0176,0.0259 6.0264,0.72313 2.0088,0.0179 12.0528,1.0109 2.0088,-0.0749 2.0088,0.17435 4.0176,-0.087 4.0176,0.28024 4.0176,0.0127 2.0088,-0.16367 8.0352,0.23463 2.0088,-0.23974 4.0176,0.34998 2.0088,-0.002 2.0088,-0.28742 2.0088,-0.16659 6.0264,0.0181 2.0088,0.24718 6.0264,0.021 2.0088,-3.3e-4 4.0176,0.31309 6.0264,-0.0231 2.0088,0.059 2.0088,-0.0628 2.0088,0.21294 4.0176,-0.51468 2.0088,-0.0715 4.0176,0.20052 2.0088,0.20329 2.0088,-0.17939 8.0352,0.0925 2.0088,-0.10507 2.0088,-0.7078 2.0088,0.0276 4.0176,0.38547 2.0088,-0.23505 2.0088,0.0986 4.0176,-0.12096 2.0088,0.24224 2.0088,-0.0659 4.0176,0.39338 4.0176,0.17438 2.0088,-0.1111 6.0264,0.0863 2.0088,-0.27371 6.0264,0.43502 4.0176,-0.27056 2.0088,0.20144 2.0088,-0.0241 2.0088,-0.14457 6.0264,0.47327 2.0088,-0.27625 2.0088,0.13308 2.0088,-0.0294 4.0176,0.1249 2.0088,-0.11895 4.0176,0.24365 2.0088,-0.14327 2.0088,0.10461 2.0088,-0.15335 2.0088,0.06 4.0176,-0.17528 2.0088,0.0185 2.0088,0.1617 6.0264,-0.0358 10.044,0.29535 4.0176,-0.27671 2.0088,-0.0392 2.0088,-0.24106 2.0088,0.141 2.0088,-10e-4 6.0264,0.26458 2.0088,-0.0294 2.0088,-0.1441 4.0176,0.0279 8.0352,-0.0583 2.0088,0.14754 10.044,0.18742 2.0088,0.0799 2.0088,-0.11108 2.0088,0.0831 4.0176,-0.13665 2.0088,-0.19816 8.0352,0.0653 6.0264,-0.14117 6.0264,0.0854 4.0176,-0.025 4.0176,0.15442 2.0088,-0.0892 4.0176,0.009 4.0176,-0.29945 2.0088,0.0737 2.0088,0.18731 6.0264,0.11027 v 0" /></g></g><g
       id="g1197"><g
         clip-path="url(#clipPath1203)"
         id="g1199"><path
           id="path1205"
           style="fill:none;stroke:#ff0000;stroke-width:3;stroke-linecap:square;stroke-linejoin:round;stroke-miterlimit:10;stroke-dasharray:none;stroke-opacity:1"
           d="m 85.0176,142.19176 2.0088,7.22931 2.0088,9.48329 4.0176,15.90488 2.0088,6.69944 2.0088,7.28202 2.0088,9.9024 2.0088,4.2454 8.0352,28.42645 2.0088,5.91989 6.0264,14.59347 2.0088,2.38573 2.0088,3.57563 2.0088,2.23454 2.0088,3.3241 2.0088,2.34522 2.0088,1.11278 2.0088,2.41815 2.0088,0.7163 2.0088,1.7446 4.0176,4.61779 2.0088,1.876 2.0088,1.43854 2.0088,2.52357 2.0088,2.23579 2.0088,2.40542 2.0088,1.24103 2.0088,0.72514 2.0088,1.46383 2.0088,1.05292 6.0264,3.74736 2.0088,0.96385 2.0088,1.45486 2.0088,0.35265 4.0176,2.25878 2.0088,0.96389 2.0088,0.73216 2.0088,0.87256 2.0088,-0.0597 2.0088,0.44429 2.0088,0.78251 4.0176,1.00542 4.0176,0.67917 2.0088,0.79603 8.0352,1.75352 2.0088,5.5e-4 8.0352,1.14165 6.0264,0.35109 4.0176,0.69009 6.0264,-0.0536 4.0176,0.3284 2.0088,-0.1897 4.0176,0.3427 4.0176,-0.23186 4.0176,0.53868 2.0088,-0.14948 2.0088,0.12936 4.0176,-0.36601 2.0088,0.16373 2.0088,-0.23035 4.0176,0.28271 2.0088,-0.0775 2.0088,0.25312 2.0088,0.007 2.0088,0.20837 4.0176,0.12249 2.0088,-0.4868 2.0088,0.43885 2.0088,-0.13412 2.0088,0.18815 10.044,0.15105 2.0088,-0.13917 4.0176,0.0542 2.0088,-0.3522 2.0088,-0.009 2.0088,0.25697 4.0176,0.24165 2.0088,0.24879 4.0176,-0.0763 2.0088,0.20369 6.0264,0.12598 2.0088,0.25124 4.0176,-0.29225 8.0352,-0.13008 2.0088,-0.26621 2.0088,-0.0898 4.0176,0.22347 10.044,0.58503 4.0176,0.0916 2.0088,0.14644 4.0176,-0.0127 2.0088,0.19206 2.0088,0.008 2.0088,-0.30456 2.0088,0.22101 6.0264,-0.28948 12.0528,0.25288 2.0088,-0.11065 4.0176,0.15318 4.0176,0.24415 4.0176,-0.25525 2.0088,0.17354 2.0088,-0.23238 2.0088,-0.0797 4.0176,0.48384 2.0088,-0.17634 2.0088,6e-5 4.0176,0.13247 2.0088,0.0192 2.0088,-0.18054 2.0088,0.0297 2.0088,-0.14121 2.0088,0.0651 12.0528,-0.43684 4.0176,0.32593 2.0088,-0.0181 4.0176,0.20942 4.0176,-0.2158 2.0088,-0.36332 2.0088,0.14854 4.0176,-0.18926 2.0088,0.0854 2.0088,0.20374 2.0088,-0.0532 2.0088,-0.20043 2.0088,0.17997 2.0088,0.0269 4.0176,0.33863 2.0088,-0.24037 4.0176,-0.2268 2.0088,0.23701 10.044,0.13891 2.0088,0.17564 2.0088,-0.29649 8.0352,0.13896 2.0088,-0.27563 2.0088,0.0692 2.0088,-0.27733 2.0088,0.24622 4.0176,-0.20566 2.0088,-0.0405 6.0264,0.15823 2.0088,-0.26179 4.0176,-0.13895 6.0264,0.30576 2.0088,-0.002 2.0088,-0.24285 4.0176,0.058 4.0176,0.21555 2.0088,0.12111 2.0088,-0.2331 2.0088,0.10734 6.0264,-0.26172 2.0088,0.13315 2.0088,0.0129 2.0088,0.13731 4.0176,0.0406 2.0088,0.14355 v 0" /></g></g><g
       id="g1207"><path
         id="path1209"
         style="fill:none;stroke:#000000;stroke-width:0.8;stroke-linecap:square;stroke-linejoin:miter;stroke-miterlimit:10;stroke-dasharray:none;stroke-opacity:1"
         d="M 81,47.52 V 380.16" /><path
         id="path1211"
         style="fill:none;stroke:#000000;stroke-width:0.8;stroke-linecap:square;stroke-linejoin:miter;stroke-miterlimit:10;stroke-dasharray:none;stroke-opacity:1"
         d="M 583.2,47.52 V 380.16" /><path
         id="path1213"
         style="fill:none;stroke:#000000;stroke-width:0.8;stroke-linecap:square;stroke-linejoin:miter;stroke-miterlimit:10;stroke-dasharray:none;stroke-opacity:1"
         d="M 81,47.52 H 583.2" /><path
         id="path1215"
         style="fill:none;stroke:#000000;stroke-width:0.8;stroke-linecap:square;stroke-linejoin:miter;stroke-miterlimit:10;stroke-dasharray:none;stroke-opacity:1"
         d="M 81,380.16 H 583.2" /><path
         id="path1217"
         style="fill:#ffffff;fill-opacity:0.8;fill-rule:nonzero;stroke:#cccccc;stroke-width:1;stroke-linecap:butt;stroke-linejoin:miter;stroke-miterlimit:10;stroke-dasharray:none;stroke-opacity:0.8"
         d="M 406.575,305.44125 H 573.2 V 370.16 H 406.575 Z" /><path
         id="path1219"
         style="fill:none;stroke:#4169e1;stroke-width:3;stroke-linecap:square;stroke-linejoin:round;stroke-miterlimit:10;stroke-dasharray:none;stroke-opacity:1"
         d="m 414.575,353.95687 h 40" /><g
         transform="translate(470.575,346.95687)"
         id="g1221"><text
           id="text1225"
           style="font-variant:normal;font-weight:normal;font-size:20px;font-family:DejaVuSans;-inkscape-font-specification:DejaVuSans;writing-mode:lr-tb;fill:#000000;fill-opacity:1;fill-rule:nonzero;stroke:none"
           transform="scale(1,-1)"><tspan
             id="tspan1223"
             sodipodi:role="line"
             y="0"
             x="0 12.22 27.620001 43.360001 60.619999 67.402496 80.738747">TDOM-AC</tspan></text></g><path
         id="path1227"
         style="fill:none;stroke:#ff0000;stroke-width:3;stroke-linecap:square;stroke-linejoin:round;stroke-miterlimit:10;stroke-dasharray:none;stroke-opacity:1"
         d="m 414.575,324.5975 h 40" /><g
         transform="translate(470.575,317.5975)"
         id="g1229"><text
           id="text1233"
           style="font-variant:normal;font-weight:normal;font-size:20px;font-family:DejaVuSans;-inkscape-font-specification:DejaVuSans;writing-mode:lr-tb;fill:#000000;fill-opacity:1;fill-rule:nonzero;stroke:none"
           transform="scale(1,-1)"><tspan
             id="tspan1231"
             sodipodi:role="line"
             y="0"
             x="0 13.9 29.639999 46.900002 64.160004 76.800003">ROMMEO</tspan></text></g></g></g></svg>
